# xmcd
#
# Track frame offsets:
#	150
#	18161
#	33264
#	48547
#	74181
#	89672
#	110906
#	127181
#	144226
#	160255
#	177022
#	195777
#
# Disc length: 2787 seconds
#
# Revision: 0
# Processed by: cddbd v1.5.2PL0 Copyright (c) Steve Scherf et al.
# Submitted via: dBpowerAMP V4.0
#
DISCID=a80ae10c
DTITLE=BluesMix - London Nights
DYEAR=2006
DGENRE=Blues
TTITLE0=Smokestack Lightning
TTITLE1=Long Way From Home
TTITLE2=This Old Fool
TTITLE3=Why Did You Have To Go?
TTITLE4=Real Life
TTITLE5=On My Mind
TTITLE6=Never Make A Move Too Soon
TTITLE7=London Nights
TTITLE8=Let It Roll
TTITLE9=No Remedy
TTITLE10=Friends
TTITLE11=Let the Good Times Roll
EXTD=
EXTT0=
EXTT1=
EXTT2=
EXTT3=
EXTT4=
EXTT5=
EXTT6=
EXTT7=
EXTT8=
EXTT9=
EXTT10=
EXTT11=
PLAYORDER=
